<?xml version="1.0" standalone="no"?>
<svg xmlns:xlink="http://www.w3.org/1999/xlink" id="wave" style="transform:rotate(0deg); transition: 0.3s" viewBox="0 0 1440 150" version="1.1" xmlns="http://www.w3.org/2000/svg"><defs><linearGradient id="sw-gradient-0" x1="0" x2="0" y1="1" y2="0"><stop stop-color="rgba(243, 106, 62, 0)" offset="0%"/><stop stop-color="rgba(255, 179, 11, 0)" offset="100%"/></linearGradient></defs><path style="transform:translate(0, 0px); opacity:1" fill="url(#sw-gradient-0)" d="M0,135L48,115C96,95,192,55,288,45C384,35,480,55,576,70C672,85,768,95,864,95C960,95,1056,85,1152,70C1248,55,1344,35,1440,25C1536,15,1632,15,1728,20C1824,25,1920,35,2016,50C2112,65,2208,85,2304,80C2400,75,2496,45,2592,30C2688,15,2784,15,2880,35C2976,55,3072,95,3168,107.5C3264,120,3360,105,3456,82.5C3552,60,3648,30,3744,25C3840,20,3936,40,4032,57.5C4128,75,4224,90,4320,100C4416,110,4512,115,4608,112.5C4704,110,4800,100,4896,90C4992,80,5088,70,5184,70C5280,70,5376,80,5472,90C5568,100,5664,110,5760,97.5C5856,85,5952,50,6048,32.5C6144,15,6240,15,6336,20C6432,25,6528,35,6624,42.5C6720,50,6816,55,6864,57.5L6912,60L6912,150L6864,150C6816,150,6720,150,6624,150C6528,150,6432,150,6336,150C6240,150,6144,150,6048,150C5952,150,5856,150,5760,150C5664,150,5568,150,5472,150C5376,150,5280,150,5184,150C5088,150,4992,150,4896,150C4800,150,4704,150,4608,150C4512,150,4416,150,4320,150C4224,150,4128,150,4032,150C3936,150,3840,150,3744,150C3648,150,3552,150,3456,150C3360,150,3264,150,3168,150C3072,150,2976,150,2880,150C2784,150,2688,150,2592,150C2496,150,2400,150,2304,150C2208,150,2112,150,2016,150C1920,150,1824,150,1728,150C1632,150,1536,150,1440,150C1344,150,1248,150,1152,150C1056,150,960,150,864,150C768,150,672,150,576,150C480,150,384,150,288,150C192,150,96,150,48,150L0,150Z"/></svg>